<?xml version="1.0" encoding="UTF-8" standalone="no"?>
<!DOCTYPE svg PUBLIC "-//W3C//DTD SVG 1.1//EN"
 "http://www.w3.org/Graphics/SVG/1.1/DTD/svg11.dtd">
<!-- Generated by graphviz version 8.0.5 (20230430.1635)
 -->
<!-- Pages: 1 -->
<svg width="644pt" height="176pt"
 viewBox="0.00 0.00 643.50 175.57" xmlns="http://www.w3.org/2000/svg" xmlns:xlink="http://www.w3.org/1999/xlink">
<g id="graph0" class="graph" transform="scale(1 1) rotate(0) translate(4 171.57)">
<polygon fill="white" stroke="none" points="-4,4 -4,-171.57 639.5,-171.57 639.5,4 -4,4"/>
<!-- &#45;1 -->
<g id="node1" class="node">
<title>&#45;1</title>
<polygon fill="lightgray" stroke="black" points="425.5,-167.57 402,-167.57 402,-149.07 425.5,-149.07 425.5,-167.57"/>
<text text-anchor="middle" x="413.75" y="-155.02" font-family="Times,serif" font-size="9.00">&#45;1</text>
</g>
<!-- 2408 -->
<g id="node18" class="node">
<title>2408</title>
<ellipse fill="white" stroke="black" cx="157.75" cy="-89.03" rx="24.04" ry="24.04"/>
<text text-anchor="middle" x="157.75" y="-85.73" font-family="Times,serif" font-size="9.00">2408</text>
</g>
<!-- &#45;1&#45;&gt;2408 -->
<g id="edge1" class="edge">
<title>&#45;1&#45;&gt;2408</title>
<path fill="none" stroke="red" stroke-width="0.13" d="M401.9,-152.2C398.95,-151.05 395.77,-149.93 392.75,-149.07 304.99,-124.28 274.99,-147.99 190.75,-113.07 188.7,-112.23 186.66,-111.24 184.65,-110.15"/>
<polygon fill="red" stroke="red" stroke-width="0.13" points="186.48,-107.17 176.12,-104.93 182.83,-113.14 186.48,-107.17"/>
</g>
<!-- 2409 -->
<g id="node19" class="node">
<title>2409</title>
<ellipse fill="white" stroke="black" cx="223.75" cy="-89.03" rx="24.04" ry="24.04"/>
<text text-anchor="middle" x="223.75" y="-85.73" font-family="Times,serif" font-size="9.00">2409</text>
</g>
<!-- &#45;1&#45;&gt;2409 -->
<g id="edge2" class="edge">
<title>&#45;1&#45;&gt;2409</title>
<path fill="none" stroke="green" stroke-width="0.11" d="M401.84,-152.37C398.9,-151.22 395.73,-150.05 392.75,-149.07 333.33,-129.61 313.48,-139.38 256.75,-113.07 254.59,-112.07 252.41,-110.93 250.27,-109.7"/>
<polygon fill="green" stroke="green" stroke-width="0.11" points="252.58,-107.01 242.25,-104.64 248.84,-112.93 252.58,-107.01"/>
</g>
<!-- 2410 -->
<g id="node20" class="node">
<title>2410</title>
<ellipse fill="white" stroke="black" cx="289.75" cy="-89.03" rx="24.04" ry="24.04"/>
<text text-anchor="middle" x="289.75" y="-85.73" font-family="Times,serif" font-size="9.00">2410</text>
</g>
<!-- &#45;1&#45;&gt;2410 -->
<g id="edge3" class="edge">
<title>&#45;1&#45;&gt;2410</title>
<path fill="none" stroke="green" stroke-width="0.28" d="M401.66,-152.17C383.93,-144.46 350.02,-129.09 322.75,-113.07 320.89,-111.98 319,-110.82 317.11,-109.62"/>
<polygon fill="green" stroke="green" stroke-width="0.28" points="319.23,-106.82 308.96,-104.2 315.35,-112.65 319.23,-106.82"/>
</g>
<!-- 2411 -->
<g id="node21" class="node">
<title>2411</title>
<ellipse fill="white" stroke="black" cx="355.75" cy="-89.03" rx="24.04" ry="24.04"/>
<text text-anchor="middle" x="355.75" y="-85.73" font-family="Times,serif" font-size="9.00">2411</text>
</g>
<!-- &#45;1&#45;&gt;2411 -->
<g id="edge4" class="edge">
<title>&#45;1&#45;&gt;2411</title>
<path fill="none" stroke="red" stroke-width="0.3" d="M406.4,-148.8C399.15,-140.39 387.7,-127.11 377.52,-115.3"/>
<polygon fill="red" stroke="red" stroke-width="0.3" points="380.26,-113.1 371.08,-107.81 374.95,-117.67 380.26,-113.1"/>
</g>
<!-- 2412 -->
<g id="node22" class="node">
<title>2412</title>
<ellipse fill="white" stroke="black" cx="421.75" cy="-89.03" rx="24.04" ry="24.04"/>
<text text-anchor="middle" x="421.75" y="-85.73" font-family="Times,serif" font-size="9.00">2412</text>
</g>
<!-- &#45;1&#45;&gt;2412 -->
<g id="edge5" class="edge">
<title>&#45;1&#45;&gt;2412</title>
<path fill="none" stroke="green" stroke-width="0.12" d="M414.76,-148.8C415.55,-142.19 416.69,-132.56 417.83,-123.01"/>
<polygon fill="green" stroke="green" stroke-width="0.12" points="421.29,-123.55 418.99,-113.21 414.34,-122.73 421.29,-123.55"/>
</g>
<!-- 2413 -->
<g id="node23" class="node">
<title>2413</title>
<ellipse fill="white" stroke="black" cx="487.75" cy="-89.03" rx="24.04" ry="24.04"/>
<text text-anchor="middle" x="487.75" y="-85.73" font-family="Times,serif" font-size="9.00">2413</text>
</g>
<!-- &#45;1&#45;&gt;2413 -->
<g id="edge6" class="edge">
<title>&#45;1&#45;&gt;2413</title>
<path fill="none" stroke="red" stroke-width="0.33" d="M423.12,-148.8C433.1,-139.73 449.3,-125 462.98,-112.55"/>
<polygon fill="red" stroke="red" stroke-width="0.33" points="465.23,-115.24 470.27,-105.93 460.52,-110.07 465.23,-115.24"/>
</g>
<!-- &#45;2 -->
<g id="node2" class="node">
<title>&#45;2</title>
<polygon fill="lightgray" stroke="black" points="467.5,-167.57 444,-167.57 444,-149.07 467.5,-149.07 467.5,-167.57"/>
<text text-anchor="middle" x="455.75" y="-155.02" font-family="Times,serif" font-size="9.00">&#45;2</text>
</g>
<!-- &#45;2&#45;&gt;2408 -->
<g id="edge7" class="edge">
<title>&#45;2&#45;&gt;2408</title>
<path fill="none" stroke="red" stroke-width="0.46" d="M443.91,-152.13C440.96,-150.99 437.78,-149.88 434.75,-149.07 328.83,-120.85 292.63,-153.53 190.75,-113.07 188.69,-112.26 186.64,-111.29 184.62,-110.22"/>
<polygon fill="red" stroke="red" stroke-width="0.46" points="186.45,-107.24 176.08,-105.04 182.82,-113.22 186.45,-107.24"/>
</g>
<!-- &#45;2&#45;&gt;2409 -->
<g id="edge8" class="edge">
<title>&#45;2&#45;&gt;2409</title>
<path fill="none" stroke="green" stroke-width="0.2" d="M443.88,-152.25C440.93,-151.1 437.76,-149.96 434.75,-149.07 357.34,-126.23 330.95,-144.84 256.75,-113.07 254.71,-112.2 252.68,-111.19 250.67,-110.1"/>
<polygon fill="green" stroke="green" stroke-width="0.2" points="252.51,-107.12 242.16,-104.85 248.84,-113.08 252.51,-107.12"/>
</g>
<!-- &#45;2&#45;&gt;2410 -->
<g id="edge9" class="edge">
<title>&#45;2&#45;&gt;2410</title>
<path fill="none" stroke="green" stroke-width="0.27" d="M443.81,-152.48C440.86,-151.33 437.7,-150.13 434.75,-149.07 385.5,-131.51 369.59,-136.3 322.75,-113.07 320.61,-112.02 318.46,-110.83 316.33,-109.57"/>
<polygon fill="green" stroke="green" stroke-width="0.27" points="318.65,-106.9 308.34,-104.45 314.88,-112.79 318.65,-106.9"/>
</g>
<!-- &#45;2&#45;&gt;2411 -->
<g id="edge10" class="edge">
<title>&#45;2&#45;&gt;2411</title>
<path fill="none" stroke="red" stroke-width="0.14" d="M443.83,-149.58C430.38,-140.82 407.89,-126.08 388.75,-113.07 386.97,-111.86 385.13,-110.61 383.29,-109.34"/>
<polygon fill="red" stroke="red" stroke-width="0.14" points="385.45,-106.58 375.24,-103.76 381.46,-112.33 385.45,-106.58"/>
</g>
<!-- &#45;2&#45;&gt;2412 -->
<g id="edge11" class="edge">
<title>&#45;2&#45;&gt;2412</title>
<path fill="none" stroke="red" stroke-width="0.3" d="M451.44,-148.8C447.7,-141.4 442.06,-130.22 436.69,-119.6"/>
<polygon fill="red" stroke="red" stroke-width="0.3" points="439.92,-118.24 432.29,-110.9 433.68,-121.4 439.92,-118.24"/>
</g>
<!-- &#45;2&#45;&gt;2413 -->
<g id="edge12" class="edge">
<title>&#45;2&#45;&gt;2413</title>
<path fill="none" stroke="green" stroke-width="0.34" d="M459.8,-148.8C463.26,-141.53 468.45,-130.61 473.43,-120.15"/>
<polygon fill="green" stroke="green" stroke-width="0.34" points="476.56,-121.72 477.69,-111.18 470.24,-118.71 476.56,-121.72"/>
</g>
<!-- &#45;3 -->
<g id="node3" class="node">
<title>&#45;3</title>
<polygon fill="lightgray" stroke="black" points="509.5,-167.57 486,-167.57 486,-149.07 509.5,-149.07 509.5,-167.57"/>
<text text-anchor="middle" x="497.75" y="-155.02" font-family="Times,serif" font-size="9.00">&#45;3</text>
</g>
<!-- &#45;3&#45;&gt;2408 -->
<g id="edge13" class="edge">
<title>&#45;3&#45;&gt;2408</title>
<path fill="none" stroke="green" stroke-width="0.14" d="M485.93,-152.09C482.98,-150.95 479.79,-149.85 476.75,-149.07 352.61,-117.41 310.32,-159.09 190.75,-113.07 188.68,-112.28 186.62,-111.33 184.6,-110.27"/>
<polygon fill="green" stroke="green" stroke-width="0.14" points="186.42,-107.28 176.05,-105.12 182.81,-113.28 186.42,-107.28"/>
</g>
<!-- &#45;3&#45;&gt;2409 -->
<g id="edge14" class="edge">
<title>&#45;3&#45;&gt;2409</title>
<path fill="none" stroke="red" stroke-width="0.41" d="M485.91,-152.17C482.96,-151.02 479.77,-149.91 476.75,-149.07 381.22,-122.81 348.54,-150.36 256.75,-113.07 254.7,-112.24 252.65,-111.26 250.63,-110.18"/>
<polygon fill="red" stroke="red" stroke-width="0.41" points="252.46,-107.2 242.1,-104.99 248.82,-113.18 252.46,-107.2"/>
</g>
<!-- &#45;3&#45;&gt;2410 -->
<g id="edge15" class="edge">
<title>&#45;3&#45;&gt;2410</title>
<path fill="none" stroke="green" stroke-width="0.47" d="M485.86,-152.31C482.91,-151.16 479.74,-150.01 476.75,-149.07 409.64,-128.17 386.94,-141.71 322.75,-113.07 320.57,-112.1 318.39,-110.98 316.24,-109.77"/>
<polygon fill="green" stroke="green" stroke-width="0.47" points="318.54,-107.08 308.21,-104.74 314.83,-113.01 318.54,-107.08"/>
</g>
<!-- &#45;3&#45;&gt;2411 -->
<g id="edge16" class="edge">
<title>&#45;3&#45;&gt;2411</title>
<path fill="none" stroke="green" stroke-width="0.29" d="M485.85,-152.58C458.53,-141.66 393.28,-115.54 388.75,-113.07 386.85,-112.04 384.94,-110.93 383.03,-109.76"/>
<polygon fill="green" stroke="green" stroke-width="0.29" points="385.12,-106.95 374.83,-104.43 381.3,-112.82 385.12,-106.95"/>
</g>
<!-- &#45;3&#45;&gt;2412 -->
<g id="edge17" class="edge">
<title>&#45;3&#45;&gt;2412</title>
<path fill="none" stroke="green" stroke-width="0.22" d="M488.12,-148.8C477.72,-139.59 460.71,-124.53 446.52,-111.96"/>
<polygon fill="green" stroke="green" stroke-width="0.22" points="449.21,-109.67 439.4,-105.66 444.57,-114.91 449.21,-109.67"/>
</g>
<!-- &#45;3&#45;&gt;2413 -->
<g id="edge18" class="edge">
<title>&#45;3&#45;&gt;2413</title>
<path fill="none" stroke="red" stroke-width="0.16" d="M496.48,-148.8C495.5,-142.19 494.07,-132.56 492.65,-123.01"/>
<polygon fill="red" stroke="red" stroke-width="0.16" points="496.13,-122.59 491.19,-113.21 489.2,-123.62 496.13,-122.59"/>
</g>
<!-- &#45;4 -->
<g id="node4" class="node">
<title>&#45;4</title>
<polygon fill="lightgray" stroke="black" points="551.5,-167.57 528,-167.57 528,-149.07 551.5,-149.07 551.5,-167.57"/>
<text text-anchor="middle" x="539.75" y="-155.02" font-family="Times,serif" font-size="9.00">&#45;4</text>
</g>
<!-- &#45;4&#45;&gt;2408 -->
<g id="edge19" class="edge">
<title>&#45;4&#45;&gt;2408</title>
<path fill="none" stroke="green" stroke-width="0.5" d="M527.93,-152.05C524.98,-150.91 521.79,-149.83 518.75,-149.07 376.36,-113.95 328.03,-164.66 190.75,-113.07 188.68,-112.3 186.61,-111.36 184.58,-110.31"/>
<polygon fill="green" stroke="green" stroke-width="0.5" points="186.4,-107.32 176.03,-105.18 182.8,-113.32 186.4,-107.32"/>
</g>
<!-- &#45;4&#45;&gt;2409 -->
<g id="edge20" class="edge">
<title>&#45;4&#45;&gt;2409</title>
<path fill="none" stroke="red" stroke-width="0.11" d="M527.92,-152.11C524.97,-150.97 521.78,-149.87 518.75,-149.07 405.03,-119.38 366.2,-155.91 256.75,-113.07 254.69,-112.27 252.63,-111.31 250.61,-110.24"/>
<polygon fill="red" stroke="red" stroke-width="0.11" points="252.43,-107.26 242.06,-105.08 248.81,-113.25 252.43,-107.26"/>
</g>
<!-- &#45;4&#45;&gt;2410 -->
<g id="edge21" class="edge">
<title>&#45;4&#45;&gt;2410</title>
<path fill="none" stroke="green" stroke-width="0.17" d="M527.89,-152.21C524.94,-151.06 521.76,-149.93 518.75,-149.07 433.58,-124.77 404.48,-147.2 322.75,-113.07 320.71,-112.22 318.66,-111.23 316.65,-110.14"/>
<polygon fill="green" stroke="green" stroke-width="0.17" points="318.49,-107.16 308.13,-104.91 314.83,-113.12 318.49,-107.16"/>
</g>
<!-- &#45;4&#45;&gt;2411 -->
<g id="edge22" class="edge">
<title>&#45;4&#45;&gt;2411</title>
<path fill="none" stroke="green" stroke-width="0.11" d="M527.84,-152.4C524.89,-151.24 521.72,-150.07 518.75,-149.07 461.88,-130.09 443,-138.6 388.75,-113.07 386.59,-112.06 384.42,-110.91 382.29,-109.67"/>
<polygon fill="green" stroke="green" stroke-width="0.11" points="384.59,-106.99 374.27,-104.6 380.85,-112.9 384.59,-106.99"/>
</g>
<!-- &#45;4&#45;&gt;2412 -->
<g id="edge23" class="edge">
<title>&#45;4&#45;&gt;2412</title>
<path fill="none" stroke="red" stroke-width="0.36" d="M527.66,-151.64C510.93,-143.65 479.93,-128.33 454.75,-113.07 452.9,-111.96 451.02,-110.77 449.15,-109.56"/>
<polygon fill="red" stroke="red" stroke-width="0.36" points="451.27,-106.77 441.02,-104.11 447.37,-112.58 451.27,-106.77"/>
</g>
<!-- &#45;4&#45;&gt;2413 -->
<g id="edge24" class="edge">
<title>&#45;4&#45;&gt;2413</title>
<path fill="none" stroke="red" stroke-width="0.13" d="M533.16,-148.8C526.86,-140.64 517.01,-127.9 508.1,-116.36"/>
<polygon fill="red" stroke="red" stroke-width="0.13" points="511.01,-114.41 502.13,-108.64 505.47,-118.69 511.01,-114.41"/>
</g>
<!-- &#45;5 -->
<g id="node5" class="node">
<title>&#45;5</title>
<polygon fill="lightgray" stroke="black" points="593.5,-167.57 570,-167.57 570,-149.07 593.5,-149.07 593.5,-167.57"/>
<text text-anchor="middle" x="581.75" y="-155.02" font-family="Times,serif" font-size="9.00">&#45;5</text>
</g>
<!-- &#45;5&#45;&gt;2408 -->
<g id="edge25" class="edge">
<title>&#45;5&#45;&gt;2408</title>
<path fill="none" stroke="green" stroke-width="0.15" d="M569.94,-152.03C566.99,-150.89 563.8,-149.81 560.75,-149.07 400.1,-110.5 345.77,-170.23 190.75,-113.07 188.67,-112.31 186.6,-111.38 184.57,-110.34"/>
<polygon fill="green" stroke="green" stroke-width="0.15" points="186.39,-107.35 176.01,-105.23 182.8,-113.36 186.39,-107.35"/>
</g>
<!-- &#45;5&#45;&gt;2409 -->
<g id="edge26" class="edge">
<title>&#45;5&#45;&gt;2409</title>
<path fill="none" stroke="red" stroke-width="0.11" d="M569.93,-152.07C566.98,-150.93 563.79,-149.84 560.75,-149.07 428.79,-115.93 383.91,-161.47 256.75,-113.07 254.68,-112.29 252.62,-111.34 250.59,-110.29"/>
<polygon fill="red" stroke="red" stroke-width="0.11" points="252.41,-107.3 242.04,-105.15 248.81,-113.3 252.41,-107.3"/>
</g>
<!-- &#45;5&#45;&gt;2410 -->
<g id="edge27" class="edge">
<title>&#45;5&#45;&gt;2410</title>
<path fill="none" stroke="red" stroke-width="0.11" d="M569.91,-152.14C566.96,-151 563.78,-149.89 560.75,-149.07 457.43,-121.34 422.11,-152.74 322.75,-113.07 320.69,-112.25 318.64,-111.28 316.62,-110.21"/>
<polygon fill="red" stroke="red" stroke-width="0.11" points="318.45,-107.23 308.08,-105.03 314.82,-113.21 318.45,-107.23"/>
</g>
<!-- &#45;5&#45;&gt;2411 -->
<g id="edge28" class="edge">
<title>&#45;5&#45;&gt;2411</title>
<path fill="none" stroke="green" stroke-width="0.5" d="M569.88,-152.26C566.93,-151.11 563.75,-149.97 560.75,-149.07 485.92,-126.72 460.44,-144.06 388.75,-113.07 386.72,-112.2 384.68,-111.18 382.68,-110.08"/>
<polygon fill="green" stroke="green" stroke-width="0.5" points="384.52,-107.1 374.17,-104.82 380.84,-113.06 384.52,-107.1"/>
</g>
<!-- &#45;5&#45;&gt;2412 -->
<g id="edge29" class="edge">
<title>&#45;5&#45;&gt;2412</title>
<path fill="none" stroke="green" stroke-width="0.26" d="M569.79,-152.52C566.85,-151.36 563.69,-150.15 560.75,-149.07 514.03,-131.97 499.14,-135.54 454.75,-113.07 452.62,-112 450.48,-110.8 448.35,-109.53"/>
<polygon fill="green" stroke="green" stroke-width="0.26" points="450.68,-106.86 440.37,-104.39 446.89,-112.75 450.68,-106.86"/>
</g>
<!-- &#45;5&#45;&gt;2413 -->
<g id="edge30" class="edge">
<title>&#45;5&#45;&gt;2413</title>
<path fill="none" stroke="red" stroke-width="0.22" d="M569.84,-148.8C556.14,-138.99 533.17,-122.55 515.01,-109.55"/>
<polygon fill="red" stroke="red" stroke-width="0.22" points="517.22,-106.83 507.06,-103.85 513.15,-112.52 517.22,-106.83"/>
</g>
<!-- &#45;6 -->
<g id="node6" class="node">
<title>&#45;6</title>
<polygon fill="lightgray" stroke="black" points="635.5,-167.57 612,-167.57 612,-149.07 635.5,-149.07 635.5,-167.57"/>
<text text-anchor="middle" x="623.75" y="-155.02" font-family="Times,serif" font-size="9.00">&#45;6</text>
</g>
<!-- &#45;6&#45;&gt;2408 -->
<g id="edge31" class="edge">
<title>&#45;6&#45;&gt;2408</title>
<path fill="none" stroke="red" stroke-width="0.5" d="M611.5,-151.83C608.68,-150.76 605.65,-149.76 602.75,-149.07 423.81,-107.04 363.52,-175.82 190.75,-113.07 188.67,-112.32 186.6,-111.4 184.56,-110.36"/>
<polygon fill="red" stroke="red" stroke-width="0.5" points="186.38,-107.37 176,-105.26 182.8,-113.38 186.38,-107.37"/>
</g>
<!-- &#45;6&#45;&gt;2409 -->
<g id="edge32" class="edge">
<title>&#45;6&#45;&gt;2409</title>
<path fill="none" stroke="green" stroke-width="0.5" d="M611.94,-152.04C608.99,-150.9 605.79,-149.82 602.75,-149.07 452.54,-112.47 401.63,-167.05 256.75,-113.07 254.68,-112.3 252.61,-111.37 250.58,-110.32"/>
<polygon fill="green" stroke="green" stroke-width="0.5" points="252.4,-107.33 242.02,-105.2 248.8,-113.34 252.4,-107.33"/>
</g>
<!-- &#45;6&#45;&gt;2410 -->
<g id="edge33" class="edge">
<title>&#45;6&#45;&gt;2410</title>
<path fill="none" stroke="red" stroke-width="0.15" d="M611.92,-152.09C608.97,-150.95 605.79,-149.85 602.75,-149.07 481.22,-117.9 439.79,-158.29 322.75,-113.07 320.68,-112.28 318.62,-111.32 316.6,-110.26"/>
<polygon fill="red" stroke="red" stroke-width="0.15" points="318.42,-107.28 308.05,-105.11 314.81,-113.27 318.42,-107.28"/>
</g>
<!-- &#45;6&#45;&gt;2411 -->
<g id="edge34" class="edge">
<title>&#45;6&#45;&gt;2411</title>
<path fill="none" stroke="green" stroke-width="0.5" d="M611.9,-152.18C608.95,-151.03 605.77,-149.91 602.75,-149.07 509.81,-123.3 478.02,-149.57 388.75,-113.07 386.7,-112.24 384.65,-111.25 382.64,-110.17"/>
<polygon fill="green" stroke="green" stroke-width="0.5" points="384.47,-107.19 374.11,-104.97 380.82,-113.17 384.47,-107.19"/>
</g>
<!-- &#45;6&#45;&gt;2412 -->
<g id="edge35" class="edge">
<title>&#45;6&#45;&gt;2412</title>
<path fill="none" stroke="red" stroke-width="0.28" d="M611.86,-152.33C608.91,-151.18 605.74,-150.02 602.75,-149.07 538.21,-128.65 516.45,-140.93 454.75,-113.07 452.58,-112.09 450.4,-110.96 448.25,-109.74"/>
<polygon fill="red" stroke="red" stroke-width="0.28" points="450.55,-107.06 440.22,-104.71 446.83,-112.99 450.55,-107.06"/>
</g>
<!-- &#45;6&#45;&gt;2413 -->
<g id="edge36" class="edge">
<title>&#45;6&#45;&gt;2413</title>
<path fill="none" stroke="red" stroke-width="0.5" d="M611.68,-151.35C590.83,-141.03 547.45,-119.57 517.96,-104.98"/>
<polygon fill="red" stroke="red" stroke-width="0.5" points="519.81,-101.99 509.3,-100.69 516.71,-108.27 519.81,-101.99"/>
</g>
<!-- &#45;7 -->
<g id="node7" class="node">
<title>&#45;7</title>
<polygon fill="lightgray" stroke="black" points="23.5,-167.57 0,-167.57 0,-149.07 23.5,-149.07 23.5,-167.57"/>
<text text-anchor="middle" x="11.75" y="-155.02" font-family="Times,serif" font-size="9.00">&#45;7</text>
</g>
<!-- &#45;7&#45;&gt;2408 -->
<g id="edge37" class="edge">
<title>&#45;7&#45;&gt;2408</title>
<path fill="none" stroke="red" stroke-width="0.17" d="M23.95,-151.7C46.4,-141.35 94.91,-118.99 126.94,-104.23"/>
<polygon fill="red" stroke="red" stroke-width="0.17" points="128.28,-107.47 135.9,-100.1 125.35,-101.11 128.28,-107.47"/>
</g>
<!-- &#45;7&#45;&gt;2409 -->
<g id="edge38" class="edge">
<title>&#45;7&#45;&gt;2409</title>
<path fill="none" stroke="green" stroke-width="0.32" d="M23.63,-152.3C26.58,-151.15 29.76,-150 32.75,-149.07 101.57,-127.85 124.89,-142.23 190.75,-113.07 192.93,-112.11 195.12,-110.99 197.27,-109.78"/>
<polygon fill="green" stroke="green" stroke-width="0.32" points="198.67,-113.03 205.3,-104.76 194.97,-107.09 198.67,-113.03"/>
</g>
<!-- &#45;7&#45;&gt;2410 -->
<g id="edge39" class="edge">
<title>&#45;7&#45;&gt;2410</title>
<path fill="none" stroke="red" stroke-width="0.27" d="M23.59,-152.16C26.54,-151.02 29.73,-149.9 32.75,-149.07 130.01,-122.49 163.28,-150.89 256.75,-113.07 258.8,-112.24 260.85,-111.27 262.87,-110.19"/>
<polygon fill="red" stroke="red" stroke-width="0.27" points="264.68,-113.19 271.4,-105 261.04,-107.21 264.68,-113.19"/>
</g>
<!-- &#45;7&#45;&gt;2411 -->
<g id="edge40" class="edge">
<title>&#45;7&#45;&gt;2411</title>
<path fill="none" stroke="red" stroke-width="0.17" d="M23.57,-152.08C26.52,-150.94 29.71,-149.85 32.75,-149.07 158.63,-117.08 201.5,-159.62 322.75,-113.07 324.82,-112.28 326.88,-111.33 328.9,-110.28"/>
<polygon fill="red" stroke="red" stroke-width="0.17" points="330.69,-113.28 337.45,-105.13 327.08,-107.29 330.69,-113.28"/>
</g>
<!-- &#45;7&#45;&gt;2412 -->
<g id="edge41" class="edge">
<title>&#45;7&#45;&gt;2412</title>
<path fill="none" stroke="red" stroke-width="0.33" d="M23.56,-152.03C26.51,-150.89 29.7,-149.81 32.75,-149.07 187.31,-111.65 239.65,-168.38 388.75,-113.07 390.83,-112.3 392.89,-111.37 394.92,-110.33"/>
<polygon fill="red" stroke="red" stroke-width="0.33" points="396.7,-113.35 403.49,-105.21 393.11,-107.34 396.7,-113.35"/>
</g>
<!-- &#45;7&#45;&gt;2413 -->
<g id="edge42" class="edge">
<title>&#45;7&#45;&gt;2413</title>
<path fill="none" stroke="green" stroke-width="0.5" d="M24,-151.83C26.82,-150.76 29.85,-149.75 32.75,-149.07 216.04,-106.21 277.75,-177.15 454.75,-113.07 456.83,-112.32 458.9,-111.4 460.94,-110.37"/>
<polygon fill="green" stroke="green" stroke-width="0.5" points="462.7,-113.39 469.51,-105.27 459.12,-107.37 462.7,-113.39"/>
</g>
<!-- &#45;8 -->
<g id="node8" class="node">
<title>&#45;8</title>
<polygon fill="lightgray" stroke="black" points="65.5,-167.57 42,-167.57 42,-149.07 65.5,-149.07 65.5,-167.57"/>
<text text-anchor="middle" x="53.75" y="-155.02" font-family="Times,serif" font-size="9.00">&#45;8</text>
</g>
<!-- &#45;8&#45;&gt;2408 -->
<g id="edge43" class="edge">
<title>&#45;8&#45;&gt;2408</title>
<path fill="none" stroke="green" stroke-width="0.28" d="M65.68,-149.61C81.15,-139.59 108.64,-121.81 129.57,-108.27"/>
<polygon fill="green" stroke="green" stroke-width="0.28" points="131.3,-111.32 137.79,-102.95 127.5,-105.44 131.3,-111.32"/>
</g>
<!-- &#45;8&#45;&gt;2409 -->
<g id="edge44" class="edge">
<title>&#45;8&#45;&gt;2409</title>
<path fill="none" stroke="red" stroke-width="0.29" d="M65.69,-152.46C68.63,-151.31 71.79,-150.11 74.75,-149.07 125.68,-131.19 142.27,-136.81 190.75,-113.07 192.89,-112.03 195.05,-110.85 197.18,-109.59"/>
<polygon fill="red" stroke="red" stroke-width="0.29" points="198.63,-112.82 205.17,-104.49 194.86,-106.92 198.63,-112.82"/>
</g>
<!-- &#45;8&#45;&gt;2410 -->
<g id="edge45" class="edge">
<title>&#45;8&#45;&gt;2410</title>
<path fill="none" stroke="green" stroke-width="0.17" d="M65.61,-152.24C68.56,-151.09 71.74,-149.96 74.75,-149.07 153.88,-125.91 180.88,-145.37 256.75,-113.07 258.79,-112.21 260.83,-111.2 262.83,-110.11"/>
<polygon fill="green" stroke="green" stroke-width="0.17" points="264.67,-113.09 271.35,-104.87 261,-107.13 264.67,-113.09"/>
</g>
<!-- &#45;8&#45;&gt;2411 -->
<g id="edge46" class="edge">
<title>&#45;8&#45;&gt;2411</title>
<path fill="none" stroke="green" stroke-width="0.26" d="M65.58,-152.13C68.53,-150.98 71.72,-149.88 74.75,-149.07 182.41,-120.52 219.19,-154.06 322.75,-113.07 324.81,-112.26 326.86,-111.29 328.88,-110.23"/>
<polygon fill="green" stroke="green" stroke-width="0.26" points="330.68,-113.23 337.42,-105.05 327.06,-107.24 330.68,-113.23"/>
</g>
<!-- &#45;8&#45;&gt;2412 -->
<g id="edge47" class="edge">
<title>&#45;8&#45;&gt;2412</title>
<path fill="none" stroke="green" stroke-width="0.27" d="M65.57,-152.06C68.52,-150.92 71.71,-149.83 74.75,-149.07 211.05,-115.11 257.38,-162.8 388.75,-113.07 390.82,-112.29 392.88,-111.35 394.91,-110.3"/>
<polygon fill="green" stroke="green" stroke-width="0.27" points="396.69,-113.31 403.47,-105.16 393.09,-107.31 396.69,-113.31"/>
</g>
<!-- &#45;8&#45;&gt;2413 -->
<g id="edge48" class="edge">
<title>&#45;8&#45;&gt;2413</title>
<path fill="none" stroke="green" stroke-width="0.14" d="M65.56,-152.02C68.51,-150.88 71.7,-149.8 74.75,-149.07 239.76,-109.67 295.51,-171.56 454.75,-113.07 456.83,-112.31 458.9,-111.38 460.93,-110.34"/>
<polygon fill="green" stroke="green" stroke-width="0.14" points="462.7,-113.36 469.49,-105.24 459.11,-107.35 462.7,-113.36"/>
</g>
<!-- &#45;9 -->
<g id="node9" class="node">
<title>&#45;9</title>
<polygon fill="lightgray" stroke="black" points="107.5,-167.57 84,-167.57 84,-149.07 107.5,-149.07 107.5,-167.57"/>
<text text-anchor="middle" x="95.75" y="-155.02" font-family="Times,serif" font-size="9.00">&#45;9</text>
</g>
<!-- &#45;9&#45;&gt;2408 -->
<g id="edge49" class="edge">
<title>&#45;9&#45;&gt;2408</title>
<path fill="none" stroke="green" stroke-width="0.25" d="M103.6,-148.8C111.54,-140.19 124.17,-126.48 135.24,-114.47"/>
<polygon fill="green" stroke="green" stroke-width="0.25" points="137.67,-116.99 141.87,-107.27 132.52,-112.25 137.67,-116.99"/>
</g>
<!-- &#45;9&#45;&gt;2409 -->
<g id="edge50" class="edge">
<title>&#45;9&#45;&gt;2409</title>
<path fill="none" stroke="green" stroke-width="0.23" d="M107.78,-152.51C126.15,-145 162.06,-129.61 190.75,-113.07 192.62,-112 194.52,-110.85 196.41,-109.65"/>
<polygon fill="green" stroke="green" stroke-width="0.23" points="198.16,-112.69 204.57,-104.26 194.3,-106.85 198.16,-112.69"/>
</g>
<!-- &#45;9&#45;&gt;2410 -->
<g id="edge51" class="edge">
<title>&#45;9&#45;&gt;2410</title>
<path fill="none" stroke="red" stroke-width="0.28" d="M107.65,-152.36C110.6,-151.21 113.77,-150.04 116.75,-149.07 177.87,-129.29 198.37,-139.89 256.75,-113.07 258.92,-112.08 261.09,-110.94 263.24,-109.71"/>
<polygon fill="red" stroke="red" stroke-width="0.28" points="264.66,-112.95 271.26,-104.66 260.93,-107.03 264.66,-112.95"/>
</g>
<!-- &#45;9&#45;&gt;2411 -->
<g id="edge52" class="edge">
<title>&#45;9&#45;&gt;2411</title>
<path fill="none" stroke="red" stroke-width="0.16" d="M107.6,-152.19C110.55,-151.04 113.73,-149.92 116.75,-149.07 206.23,-123.96 236.83,-148.52 322.75,-113.07 324.8,-112.23 326.84,-111.24 328.86,-110.16"/>
<polygon fill="red" stroke="red" stroke-width="0.16" points="330.67,-113.15 337.38,-104.95 327.02,-107.18 330.67,-113.15"/>
</g>
<!-- &#45;9&#45;&gt;2412 -->
<g id="edge53" class="edge">
<title>&#45;9&#45;&gt;2412</title>
<path fill="none" stroke="green" stroke-width="0.21" d="M107.58,-152.1C110.53,-150.96 113.72,-149.86 116.75,-149.07 234.81,-118.56 275.08,-157.24 388.75,-113.07 390.81,-112.27 392.87,-111.32 394.9,-110.26"/>
<polygon fill="green" stroke="green" stroke-width="0.21" points="396.69,-113.26 403.44,-105.1 393.07,-107.27 396.69,-113.26"/>
</g>
<!-- &#45;9&#45;&gt;2413 -->
<g id="edge54" class="edge">
<title>&#45;9&#45;&gt;2413</title>
<path fill="none" stroke="red" stroke-width="0.43" d="M107.56,-152.05C110.51,-150.91 113.71,-149.82 116.75,-149.07 263.48,-113.13 313.25,-165.99 454.75,-113.07 456.82,-112.3 458.89,-111.36 460.92,-110.32"/>
<polygon fill="red" stroke="red" stroke-width="0.43" points="462.7,-113.33 469.48,-105.19 459.1,-107.33 462.7,-113.33"/>
</g>
<!-- &#45;10 -->
<g id="node10" class="node">
<title>&#45;10</title>
<polygon fill="lightgray" stroke="black" points="153.75,-167.57 125.75,-167.57 125.75,-149.07 153.75,-149.07 153.75,-167.57"/>
<text text-anchor="middle" x="139.75" y="-155.02" font-family="Times,serif" font-size="9.00">&#45;10</text>
</g>
<!-- &#45;10&#45;&gt;2408 -->
<g id="edge55" class="edge">
<title>&#45;10&#45;&gt;2408</title>
<path fill="none" stroke="green" stroke-width="0.31" d="M142.03,-148.8C143.85,-142.01 146.51,-132.05 149.13,-122.25"/>
<polygon fill="green" stroke="green" stroke-width="0.31" points="152.5,-123.19 151.71,-112.63 145.74,-121.38 152.5,-123.19"/>
</g>
<!-- &#45;10&#45;&gt;2409 -->
<g id="edge56" class="edge">
<title>&#45;10&#45;&gt;2409</title>
<path fill="none" stroke="red" stroke-width="0.14" d="M150.39,-148.8C162.23,-139.32 181.78,-123.65 197.73,-110.88"/>
<polygon fill="red" stroke="red" stroke-width="0.14" points="199.6,-113.86 205.22,-104.88 195.23,-108.4 199.6,-113.86"/>
</g>
<!-- &#45;10&#45;&gt;2410 -->
<g id="edge57" class="edge">
<title>&#45;10&#45;&gt;2410</title>
<path fill="none" stroke="red" stroke-width="0.14" d="M154.02,-152.15C183.11,-141.58 247.29,-118.07 256.75,-113.07 258.66,-112.07 260.59,-110.97 262.5,-109.81"/>
<polygon fill="red" stroke="red" stroke-width="0.14" points="264.21,-112.88 270.71,-104.51 260.41,-107 264.21,-112.88"/>
</g>
<!-- &#45;10&#45;&gt;2411 -->
<g id="edge58" class="edge">
<title>&#45;10&#45;&gt;2411</title>
<path fill="none" stroke="green" stroke-width="0.19" d="M153.77,-151.99C156.71,-150.95 159.82,-149.93 162.75,-149.07 232.74,-128.73 256.06,-142.49 322.75,-113.07 324.93,-112.11 327.12,-111 329.27,-109.79"/>
<polygon fill="green" stroke="green" stroke-width="0.19" points="330.68,-113.03 337.31,-104.77 326.97,-107.1 330.68,-113.03"/>
</g>
<!-- &#45;10&#45;&gt;2412 -->
<g id="edge59" class="edge">
<title>&#45;10&#45;&gt;2412</title>
<path fill="none" stroke="green" stroke-width="0.39" d="M154.22,-151.67C157.02,-150.71 159.96,-149.79 162.75,-149.07 261.27,-123.79 294.44,-151.16 388.75,-113.07 390.8,-112.25 392.85,-111.27 394.87,-110.19"/>
<polygon fill="green" stroke="green" stroke-width="0.39" points="396.68,-113.19 403.4,-105 393.04,-107.21 396.68,-113.19"/>
</g>
<!-- &#45;10&#45;&gt;2413 -->
<g id="edge60" class="edge">
<title>&#45;10&#45;&gt;2413</title>
<path fill="none" stroke="green" stroke-width="0.25" d="M154.2,-151.59C157.01,-150.64 159.94,-149.74 162.75,-149.07 289.96,-118.81 332.66,-159.88 454.75,-113.07 456.82,-112.28 458.88,-111.33 460.9,-110.28"/>
<polygon fill="green" stroke="green" stroke-width="0.25" points="462.69,-113.29 469.45,-105.13 459.08,-107.29 462.69,-113.29"/>
</g>
<!-- &#45;11 -->
<g id="node11" class="node">
<title>&#45;11</title>
<polygon fill="lightgray" stroke="black" points="199.75,-167.57 171.75,-167.57 171.75,-149.07 199.75,-149.07 199.75,-167.57"/>
<text text-anchor="middle" x="185.75" y="-155.02" font-family="Times,serif" font-size="9.00">&#45;11</text>
</g>
<!-- &#45;11&#45;&gt;2408 -->
<g id="edge61" class="edge">
<title>&#45;11&#45;&gt;2408</title>
<path fill="none" stroke="green" stroke-width="0.14" d="M182.2,-148.8C179.25,-141.71 174.86,-131.15 170.61,-120.94"/>
<polygon fill="green" stroke="green" stroke-width="0.14" points="173.86,-119.65 166.79,-111.76 167.4,-122.33 173.86,-119.65"/>
</g>
<!-- &#45;11&#45;&gt;2409 -->
<g id="edge62" class="edge">
<title>&#45;11&#45;&gt;2409</title>
<path fill="none" stroke="red" stroke-width="0.31" d="M190.56,-148.8C194.82,-141.27 201.28,-129.83 207.37,-119.04"/>
<polygon fill="red" stroke="red" stroke-width="0.31" points="210.26,-121.04 212.13,-110.61 204.17,-117.6 210.26,-121.04"/>
</g>
<!-- &#45;11&#45;&gt;2410 -->
<g id="edge63" class="edge">
<title>&#45;11&#45;&gt;2410</title>
<path fill="none" stroke="red" stroke-width="0.37" d="M200.03,-148.72C214.47,-139.96 237.36,-125.88 256.75,-113.07 258.55,-111.89 260.4,-110.65 262.25,-109.39"/>
<polygon fill="red" stroke="red" stroke-width="0.37" points="264.06,-112.4 270.32,-103.85 260.1,-106.63 264.06,-112.4"/>
</g>
<!-- &#45;11&#45;&gt;2411 -->
<g id="edge64" class="edge">
<title>&#45;11&#45;&gt;2411</title>
<path fill="none" stroke="green" stroke-width="0.11" d="M199.83,-152.18C202.77,-151.13 205.86,-150.05 208.75,-149.07 259.1,-132.1 275.09,-136.55 322.75,-113.07 324.89,-112.02 327.04,-110.84 329.17,-109.58"/>
<polygon fill="green" stroke="green" stroke-width="0.11" points="330.63,-112.81 337.17,-104.47 326.86,-106.91 330.63,-112.81"/>
</g>
<!-- &#45;11&#45;&gt;2412 -->
<g id="edge65" class="edge">
<title>&#45;11&#45;&gt;2412</title>
<path fill="none" stroke="green" stroke-width="0.49" d="M200.25,-151.76C203.04,-150.79 205.97,-149.85 208.75,-149.07 287.36,-127.24 313.72,-145.11 388.75,-113.07 390.79,-112.21 392.82,-111.2 394.83,-110.1"/>
<polygon fill="green" stroke="green" stroke-width="0.49" points="396.67,-113.08 403.34,-104.86 392.99,-107.12 396.67,-113.08"/>
</g>
<!-- &#45;11&#45;&gt;2413 -->
<g id="edge66" class="edge">
<title>&#45;11&#45;&gt;2413</title>
<path fill="none" stroke="red" stroke-width="0.19" d="M200.22,-151.64C203.02,-150.68 205.95,-149.77 208.75,-149.07 315.95,-122.29 352.03,-153.8 454.75,-113.07 456.81,-112.26 458.86,-111.29 460.88,-110.22"/>
<polygon fill="red" stroke="red" stroke-width="0.19" points="462.68,-113.22 469.42,-105.05 459.06,-107.24 462.68,-113.22"/>
</g>
<!-- &#45;12 -->
<g id="node12" class="node">
<title>&#45;12</title>
<polygon fill="lightgray" stroke="black" points="245.75,-167.57 217.75,-167.57 217.75,-149.07 245.75,-149.07 245.75,-167.57"/>
<text text-anchor="middle" x="231.75" y="-155.02" font-family="Times,serif" font-size="9.00">&#45;12</text>
</g>
<!-- &#45;12&#45;&gt;2408 -->
<g id="edge67" class="edge">
<title>&#45;12&#45;&gt;2408</title>
<path fill="none" stroke="green" stroke-width="0.34" d="M222.38,-148.8C212.4,-139.73 196.2,-125 182.52,-112.55"/>
<polygon fill="green" stroke="green" stroke-width="0.34" points="184.98,-110.07 175.23,-105.93 180.27,-115.24 184.98,-110.07"/>
</g>
<!-- &#45;12&#45;&gt;2409 -->
<g id="edge68" class="edge">
<title>&#45;12&#45;&gt;2409</title>
<path fill="none" stroke="red" stroke-width="0.13" d="M230.74,-148.8C229.95,-142.19 228.81,-132.56 227.67,-123.01"/>
<polygon fill="red" stroke="red" stroke-width="0.13" points="231.16,-122.73 226.51,-113.21 224.21,-123.55 231.16,-122.73"/>
</g>
<!-- &#45;12&#45;&gt;2410 -->
<g id="edge69" class="edge">
<title>&#45;12&#45;&gt;2410</title>
<path fill="none" stroke="green" stroke-width="0.16" d="M239.1,-148.8C246.35,-140.39 257.8,-127.11 267.98,-115.3"/>
<polygon fill="green" stroke="green" stroke-width="0.16" points="270.55,-117.67 274.42,-107.81 265.24,-113.1 270.55,-117.67"/>
</g>
<!-- &#45;12&#45;&gt;2411 -->
<g id="edge70" class="edge">
<title>&#45;12&#45;&gt;2411</title>
<path fill="none" stroke="green" stroke-width="0.23" d="M245.98,-151.24C264.2,-143.26 296.54,-128.47 322.75,-113.07 324.61,-111.98 326.5,-110.82 328.39,-109.62"/>
<polygon fill="green" stroke="green" stroke-width="0.23" points="330.15,-112.65 336.54,-104.2 326.27,-106.82 330.15,-112.65"/>
</g>
<!-- &#45;12&#45;&gt;2412 -->
<g id="edge71" class="edge">
<title>&#45;12&#45;&gt;2412</title>
<path fill="none" stroke="green" stroke-width="0.3" d="M245.8,-152.08C248.74,-151.04 251.84,-149.99 254.75,-149.07 313.6,-130.65 332.85,-139.12 388.75,-113.07 390.91,-112.07 393.08,-110.92 395.22,-109.69"/>
<polygon fill="green" stroke="green" stroke-width="0.3" points="396.65,-112.92 403.24,-104.62 392.92,-107 396.65,-112.92"/>
</g>
<!-- &#45;12&#45;&gt;2413 -->
<g id="edge72" class="edge">
<title>&#45;12&#45;&gt;2413</title>
<path fill="none" stroke="green" stroke-width="0.22" d="M246.23,-151.72C249.03,-150.75 251.96,-149.82 254.75,-149.07 342,-125.75 371.35,-147.73 454.75,-113.07 456.79,-112.23 458.84,-111.23 460.85,-110.15"/>
<polygon fill="green" stroke="green" stroke-width="0.22" points="462.67,-113.13 469.37,-104.93 459.02,-107.16 462.67,-113.13"/>
</g>
<!-- &#45;13 -->
<g id="node13" class="node">
<title>&#45;13</title>
<polygon fill="lightgray" stroke="black" points="291.75,-167.57 263.75,-167.57 263.75,-149.07 291.75,-149.07 291.75,-167.57"/>
<text text-anchor="middle" x="277.75" y="-155.02" font-family="Times,serif" font-size="9.00">&#45;13</text>
</g>
<!-- &#45;13&#45;&gt;2408 -->
<g id="edge73" class="edge">
<title>&#45;13&#45;&gt;2408</title>
<path fill="none" stroke="red" stroke-width="0.35" d="M263.26,-150.71C245.72,-142.54 215.46,-127.89 190.75,-113.07 188.9,-111.97 187.02,-110.79 185.13,-109.58"/>
<polygon fill="red" stroke="red" stroke-width="0.35" points="187.25,-106.79 177,-104.14 183.37,-112.61 187.25,-106.79"/>
</g>
<!-- &#45;13&#45;&gt;2409 -->
<g id="edge74" class="edge">
<title>&#45;13&#45;&gt;2409</title>
<path fill="none" stroke="green" stroke-width="0.18" d="M270.91,-148.8C264.32,-140.58 253.99,-127.72 244.68,-116.12"/>
<polygon fill="green" stroke="green" stroke-width="0.18" points="247.45,-113.97 238.46,-108.36 241.99,-118.35 247.45,-113.97"/>
</g>
<!-- &#45;13&#45;&gt;2410 -->
<g id="edge75" class="edge">
<title>&#45;13&#45;&gt;2410</title>
<path fill="none" stroke="red" stroke-width="0.37" d="M279.27,-148.8C280.45,-142.19 282.17,-132.56 283.87,-123.01"/>
<polygon fill="red" stroke="red" stroke-width="0.37" points="287.31,-123.67 285.62,-113.21 280.42,-122.44 287.31,-123.67"/>
</g>
<!-- &#45;13&#45;&gt;2411 -->
<g id="edge76" class="edge">
<title>&#45;13&#45;&gt;2411</title>
<path fill="none" stroke="red" stroke-width="0.21" d="M287.63,-148.8C298.38,-139.53 315.99,-124.33 330.62,-111.72"/>
<polygon fill="red" stroke="red" stroke-width="0.21" points="332.65,-114.58 337.94,-105.4 328.08,-109.28 332.65,-114.58"/>
</g>
<!-- &#45;13&#45;&gt;2412 -->
<g id="edge77" class="edge">
<title>&#45;13&#45;&gt;2412</title>
<path fill="none" stroke="red" stroke-width="0.25" d="M292.21,-152.03C318.11,-142.48 371.31,-122.48 388.75,-113.07 390.65,-112.05 392.57,-110.94 394.48,-109.77"/>
<polygon fill="red" stroke="red" stroke-width="0.25" points="396.2,-112.83 402.68,-104.45 392.39,-106.96 396.2,-112.83"/>
</g>
<!-- &#45;13&#45;&gt;2413 -->
<g id="edge78" class="edge">
<title>&#45;13&#45;&gt;2413</title>
<path fill="none" stroke="red" stroke-width="0.32" d="M291.78,-152.01C294.72,-150.97 297.82,-149.94 300.75,-149.07 368.16,-129.18 390.56,-141.71 454.75,-113.07 456.93,-112.1 459.11,-110.98 461.26,-109.77"/>
<polygon fill="red" stroke="red" stroke-width="0.32" points="462.67,-113.01 469.29,-104.74 458.96,-107.08 462.67,-113.01"/>
</g>
<!-- &#45;14 -->
<g id="node14" class="node">
<title>&#45;14</title>
<polygon fill="lightgray" stroke="black" points="337.75,-167.57 309.75,-167.57 309.75,-149.07 337.75,-149.07 337.75,-167.57"/>
<text text-anchor="middle" x="323.75" y="-155.02" font-family="Times,serif" font-size="9.00">&#45;14</text>
</g>
<!-- &#45;14&#45;&gt;2408 -->
<g id="edge79" class="edge">
<title>&#45;14&#45;&gt;2408</title>
<path fill="none" stroke="red" stroke-width="0.35" d="M309.66,-152.2C306.72,-151.15 303.64,-150.07 300.75,-149.07 252.09,-132.39 236.78,-136.05 190.75,-113.07 188.62,-112.01 186.47,-110.82 184.34,-109.56"/>
<polygon fill="red" stroke="red" stroke-width="0.35" points="186.66,-106.89 176.35,-104.43 182.88,-112.78 186.66,-106.89"/>
</g>
<!-- &#45;14&#45;&gt;2409 -->
<g id="edge80" class="edge">
<title>&#45;14&#45;&gt;2409</title>
<path fill="none" stroke="red" stroke-width="0.2" d="M310.33,-148.61C296.76,-139.76 275.2,-125.61 256.75,-113.07 254.97,-111.86 253.13,-110.61 251.29,-109.34"/>
<polygon fill="red" stroke="red" stroke-width="0.2" points="253.45,-106.58 243.24,-103.76 249.46,-112.33 253.45,-106.58"/>
</g>
<!-- &#45;14&#45;&gt;2410 -->
<g id="edge81" class="edge">
<title>&#45;14&#45;&gt;2410</title>
<path fill="none" stroke="red" stroke-width="0.41" d="M319.44,-148.8C315.7,-141.4 310.06,-130.22 304.69,-119.6"/>
<polygon fill="red" stroke="red" stroke-width="0.41" points="307.92,-118.24 300.29,-110.9 301.68,-121.4 307.92,-118.24"/>
</g>
<!-- &#45;14&#45;&gt;2411 -->
<g id="edge82" class="edge">
<title>&#45;14&#45;&gt;2411</title>
<path fill="none" stroke="green" stroke-width="0.31" d="M327.8,-148.8C331.26,-141.53 336.45,-130.61 341.43,-120.15"/>
<polygon fill="green" stroke="green" stroke-width="0.31" points="344.56,-121.72 345.69,-111.18 338.24,-118.71 344.56,-121.72"/>
</g>
<!-- &#45;14&#45;&gt;2412 -->
<g id="edge83" class="edge">
<title>&#45;14&#45;&gt;2412</title>
<path fill="none" stroke="red" stroke-width="0.24" d="M336.24,-148.89C349.35,-140.01 370.54,-125.63 388.75,-113.07 390.53,-111.85 392.35,-110.59 394.19,-109.31"/>
<polygon fill="red" stroke="red" stroke-width="0.24" points="396.02,-112.3 402.23,-103.72 392.03,-106.55 396.02,-112.3"/>
</g>
<!-- &#45;14&#45;&gt;2413 -->
<g id="edge84" class="edge">
<title>&#45;14&#45;&gt;2413</title>
<path fill="none" stroke="red" stroke-width="0.14" d="M337.84,-152.21C340.78,-151.16 343.86,-150.07 346.75,-149.07 394.57,-132.53 409.54,-135.79 454.75,-113.07 456.88,-112 459.03,-110.81 461.15,-109.54"/>
<polygon fill="red" stroke="red" stroke-width="0.14" points="462.62,-112.76 469.14,-104.41 458.83,-106.87 462.62,-112.76"/>
</g>
<!-- &#45;15 -->
<g id="node15" class="node">
<title>&#45;15</title>
<polygon fill="lightgray" stroke="black" points="383.75,-167.57 355.75,-167.57 355.75,-149.07 383.75,-149.07 383.75,-167.57"/>
<text text-anchor="middle" x="369.75" y="-155.02" font-family="Times,serif" font-size="9.00">&#45;15</text>
</g>
<!-- &#45;15&#45;&gt;2408 -->
<g id="edge85" class="edge">
<title>&#45;15&#45;&gt;2408</title>
<path fill="none" stroke="red" stroke-width="0.14" d="M355.73,-152C352.78,-150.96 349.68,-149.94 346.75,-149.07 278.48,-129.03 255.77,-141.97 190.75,-113.07 188.57,-112.11 186.39,-110.99 184.24,-109.77"/>
<polygon fill="red" stroke="red" stroke-width="0.14" points="186.54,-107.08 176.2,-104.75 182.83,-113.02 186.54,-107.08"/>
</g>
<!-- &#45;15&#45;&gt;2409 -->
<g id="edge86" class="edge">
<title>&#45;15&#45;&gt;2409</title>
<path fill="none" stroke="green" stroke-width="0.12" d="M355.44,-152.2C329.23,-142.74 274.58,-122.62 256.75,-113.07 254.85,-112.06 252.92,-110.95 251.01,-109.79"/>
<polygon fill="green" stroke="green" stroke-width="0.12" points="253.1,-106.97 242.81,-104.47 249.3,-112.85 253.1,-106.97"/>
</g>
<!-- &#45;15&#45;&gt;2410 -->
<g id="edge87" class="edge">
<title>&#45;15&#45;&gt;2410</title>
<path fill="none" stroke="green" stroke-width="0.5" d="M359.62,-148.8C348.59,-139.53 330.53,-124.33 315.53,-111.72"/>
<polygon fill="green" stroke="green" stroke-width="0.5" points="317.92,-109.16 308.02,-105.4 313.42,-114.52 317.92,-109.16"/>
</g>
<!-- &#45;15&#45;&gt;2411 -->
<g id="edge88" class="edge">
<title>&#45;15&#45;&gt;2411</title>
<path fill="none" stroke="red" stroke-width="0.43" d="M367.98,-148.8C366.58,-142.06 364.52,-132.21 362.5,-122.48"/>
<polygon fill="red" stroke="red" stroke-width="0.43" points="365.98,-122 360.51,-112.92 359.12,-123.42 365.98,-122"/>
</g>
<!-- &#45;15&#45;&gt;2412 -->
<g id="edge89" class="edge">
<title>&#45;15&#45;&gt;2412</title>
<path fill="none" stroke="green" stroke-width="0.38" d="M376.34,-148.8C382.64,-140.64 392.49,-127.9 401.4,-116.36"/>
<polygon fill="green" stroke="green" stroke-width="0.38" points="404.03,-118.69 407.37,-108.64 398.49,-114.41 404.03,-118.69"/>
</g>
<!-- &#45;15&#45;&gt;2413 -->
<g id="edge90" class="edge">
<title>&#45;15&#45;&gt;2413</title>
<path fill="none" stroke="green" stroke-width="0.35" d="M384.2,-150.51C401.36,-142.26 430.7,-127.64 454.75,-113.07 456.6,-111.96 458.48,-110.77 460.35,-109.56"/>
<polygon fill="green" stroke="green" stroke-width="0.35" points="462.13,-112.58 468.48,-104.11 458.23,-106.77 462.13,-112.58"/>
</g>
<!-- 0 -->
<g id="node16" class="node">
<title>0</title>
<ellipse fill="lightblue" stroke="black" cx="298.75" cy="-14.5" rx="14.5" ry="14.5"/>
<text text-anchor="middle" x="298.75" y="-11.2" font-family="Times,serif" font-size="9.00">0</text>
</g>
<!-- 1 -->
<g id="node17" class="node">
<title>1</title>
<ellipse fill="lightblue" stroke="black" cx="350.75" cy="-14.5" rx="14.5" ry="14.5"/>
<text text-anchor="middle" x="350.75" y="-11.2" font-family="Times,serif" font-size="9.00">1</text>
</g>
<!-- 2408&#45;&gt;0 -->
<g id="edge91" class="edge">
<title>2408&#45;&gt;0</title>
<path fill="none" stroke="red" stroke-width="0.16" d="M176.91,-73.79C181.36,-70.73 186.14,-67.63 190.75,-64.99 219.29,-48.67 254.16,-33.48 276.42,-24.34"/>
<polygon fill="red" stroke="red" stroke-width="0.16" points="277.45,-27.7 285.4,-20.7 274.82,-21.21 277.45,-27.7"/>
</g>
<!-- 2408&#45;&gt;1 -->
<g id="edge92" class="edge">
<title>2408&#45;&gt;1</title>
<path fill="none" stroke="green" stroke-width="0.24" d="M176.27,-73.46C180.83,-70.35 185.82,-67.31 190.75,-64.99 245.41,-39.33 265.07,-49.8 321.75,-28.99 324.12,-28.12 326.57,-27.13 328.98,-26.1"/>
<polygon fill="green" stroke="green" stroke-width="0.24" points="330.3,-29.34 337.95,-22.01 327.4,-22.97 330.3,-29.34"/>
</g>
<!-- 2409&#45;&gt;0 -->
<g id="edge93" class="edge">
<title>2409&#45;&gt;0</title>
<path fill="none" stroke="red" stroke-width="0.47" d="M240.77,-71.57C252.94,-59.8 269.26,-44.02 281.48,-32.2"/>
<polygon fill="red" stroke="red" stroke-width="0.47" points="283.74,-34.89 288.49,-25.42 278.87,-29.85 283.74,-34.89"/>
</g>
<!-- 2409&#45;&gt;1 -->
<g id="edge94" class="edge">
<title>2409&#45;&gt;1</title>
<path fill="none" stroke="red" stroke-width="0.3" d="M243.02,-73.98C247.46,-70.91 252.21,-67.75 256.75,-64.99 280.74,-50.38 309.44,-35.64 328.77,-26.09"/>
<polygon fill="red" stroke="red" stroke-width="0.3" points="330.25,-29.26 337.7,-21.72 327.18,-22.98 330.25,-29.26"/>
</g>
<!-- 2410&#45;&gt;0 -->
<g id="edge95" class="edge">
<title>2410&#45;&gt;0</title>
<path fill="none" stroke="red" stroke-width="0.21" d="M292.65,-64.68C293.67,-56.41 294.83,-47.11 295.85,-38.84"/>
<polygon fill="red" stroke="red" stroke-width="0.21" points="299.31,-39.43 297.07,-29.07 292.36,-38.57 299.31,-39.43"/>
</g>
<!-- 2410&#45;&gt;1 -->
<g id="edge96" class="edge">
<title>2410&#45;&gt;1</title>
<path fill="none" stroke="red" stroke-width="0.34" d="M304.83,-70.1C314.14,-59.03 326.06,-44.86 335.41,-33.73"/>
<polygon fill="red" stroke="red" stroke-width="0.34" points="337.95,-36.16 341.7,-26.25 332.59,-31.65 337.95,-36.16"/>
</g>
<!-- 2411&#45;&gt;0 -->
<g id="edge97" class="edge">
<title>2411&#45;&gt;0</title>
<path fill="none" stroke="green" stroke-width="0.42" d="M341.37,-69.73C332.85,-58.89 322.09,-45.19 313.51,-34.28"/>
<polygon fill="green" stroke="green" stroke-width="0.42" points="316.38,-32.26 307.45,-26.56 310.87,-36.59 316.38,-32.26"/>
</g>
<!-- 2411&#45;&gt;1 -->
<g id="edge98" class="edge">
<title>2411&#45;&gt;1</title>
<path fill="none" stroke="red" stroke-width="0.2" d="M354.14,-64.68C353.57,-56.41 352.93,-47.11 352.36,-38.84"/>
<polygon fill="red" stroke="red" stroke-width="0.2" points="355.87,-38.81 351.69,-29.07 348.88,-39.29 355.87,-38.81"/>
</g>
<!-- 2412&#45;&gt;0 -->
<g id="edge99" class="edge">
<title>2412&#45;&gt;0</title>
<path fill="none" stroke="green" stroke-width="0.14" d="M402.44,-74.04C398,-70.96 393.26,-67.8 388.75,-64.99 365.92,-50.8 338.78,-36.16 320.31,-26.52"/>
<polygon fill="green" stroke="green" stroke-width="0.14" points="322,-23.46 311.51,-21.97 318.78,-29.67 322,-23.46"/>
</g>
<!-- 2412&#45;&gt;1 -->
<g id="edge100" class="edge">
<title>2412&#45;&gt;1</title>
<path fill="none" stroke="green" stroke-width="0.31" d="M405.28,-71.21C393.86,-59.54 378.7,-44.05 367.26,-32.37"/>
<polygon fill="green" stroke="green" stroke-width="0.31" points="369.86,-30.01 360.36,-25.32 364.86,-34.91 369.86,-30.01"/>
</g>
<!-- 2413&#45;&gt;0 -->
<g id="edge101" class="edge">
<title>2413&#45;&gt;0</title>
<path fill="none" stroke="red" stroke-width="0.25" d="M469.22,-73.49C464.66,-70.38 459.67,-67.33 454.75,-64.99 401.74,-39.85 382.74,-49.43 327.75,-28.99 325.38,-28.11 322.94,-27.12 320.52,-26.08"/>
<polygon fill="red" stroke="red" stroke-width="0.25" points="322.11,-22.95 311.55,-21.99 319.2,-29.32 322.11,-22.95"/>
</g>
<!-- 2413&#45;&gt;1 -->
<g id="edge102" class="edge">
<title>2413&#45;&gt;1</title>
<path fill="none" stroke="red" stroke-width="0.4" d="M468.56,-73.84C464.11,-70.78 459.34,-67.66 454.75,-64.99 427.47,-49.12 394.3,-34.01 372.87,-24.75"/>
<polygon fill="red" stroke="red" stroke-width="0.4" points="374.48,-21.63 363.91,-20.92 371.73,-28.07 374.48,-21.63"/>
</g>
</g>
</svg>
